<?xml version="1.0" standalone="no"?>
<!DOCTYPE svg PUBLIC "-//W3C//DTD SVG 20010904//EN"
 "http://www.w3.org/TR/2001/REC-SVG-20010904/DTD/svg10.dtd">
<svg version="1.0" xmlns="http://www.w3.org/2000/svg"
 width="1928.000000pt" height="460.000000pt" viewBox="0 0 1928.000000 460.000000"
 preserveAspectRatio="xMidYMid meet">
<metadata>
Created by potrace 1.16, written by Peter Selinger 2001-2019
</metadata>
<g transform="translate(0.000000,460.000000) scale(0.100000,-0.100000)"
fill="#ffffff" stroke="none">
<path d="M1911 4540 c-939 -91 -1623 -723 -1804 -1666 -41 -213 -52 -333 -51
-594 1 -453 75 -803 239 -1135 288 -582 796 -963 1435 -1075 158 -28 476 -38
641 -21 774 81 1371 544 1599 1241 36 110 80 296 80 339 0 21 -2 21 -455 21
l-454 0 -11 -42 c-80 -319 -270 -559 -539 -681 -217 -98 -543 -115 -799 -41
-444 128 -731 516 -808 1093 -18 138 -20 454 -4 591 24 198 86 422 157 565
145 289 394 498 680 571 262 66 548 48 772 -49 272 -117 454 -348 541 -684
l11 -43 454 0 c453 0 455 0 455 21 0 45 -44 231 -81 344 -220 667 -785 1128
-1510 1230 -139 19 -420 27 -548 15z M4407 4473 c-4 -3 -7 -987 -7 -2185 l0
-2178 1570 0 1570 0 -2 387 -3 388 -1112 3 -1113 2 0 525 0 525 1030 0 1030 0
0 375 0 375 -1030 0 -1030 0 0 505 0 505 1115 0 1115 0 0 390 0 390 -1563 0
c-860 0 -1567 -3 -1570 -7z M7907 4474 c-4 -4 -7 -988 -7 -2186 l0 -2178 864
0 c519 0 905 4 967 10 351 35 631 120 898 272 132 76 236 155 359 273 321 309
508 693 589 1205 28 178 25 695 -4 875 -83 501 -278 891 -596 1191 -295 279
-645 441 -1112 515 -136 22 -168 23 -1045 26 -498 3 -909 1 -913 -3z m1756
-779 c281 -37 497 -135 668 -305 182 -180 290 -423 341 -765 18 -121 18 -540
0 -660 -50 -332 -150 -565 -319 -745 -162 -172 -354 -271 -628 -321 -95 -18
-165 -21 -512 -26 l-403 -5 0 1421 0 1421 369 0 c271 0 401 -4 484 -15z
M12889 4453 c-32 -84 -1519 -4327 -1519 -4335 0 -4 219 -7 487 -6 l486 3 154
460 c84 252 162 479 173 502 11 24 20 47 20 52 0 4 13 48 29 97 16 49 61 190
101 314 39 124 110 338 156 475 88 259 299 939 424 1365 40 135 75 248 79 252
4 5 28 -67 55 -160 81 -283 382 -1276 450 -1484 l64 -198 -348 0 -347 0 -125
-362 -125 -363 590 -5 590 -5 53 -160 c29 -88 98 -301 154 -473 l101 -312 499
0 c275 0 500 3 500 8 0 4 -344 986 -764 2182 l-763 2175 -582 3 -581 2 -11
-27z M15797 4474 c-4 -4 -7 -988 -7 -2186 l0 -2178 455 0 455 0 0 760 0 760
399 0 400 0 383 -760 383 -760 488 0 489 0 -75 142 c-157 301 -786 1524 -792
1540 -5 13 12 26 76 59 339 176 576 489 661 869 20 93 23 130 23 330 -1 194
-4 239 -23 327 -130 598 -556 971 -1233 1080 -91 14 -229 17 -1089 20 -542 2
-989 1 -993 -3z m1906 -774 c313 -64 516 -275 545 -567 36 -365 -146 -642
-480 -733 -122 -33 -236 -40 -660 -40 l-408 0 0 680 0 680 451 0 c415 0 459
-2 552 -20z"/>
</g>
</svg>
